<svg xmlns="http://www.w3.org/2000/svg" viewBox="0 0 512 512">
<defs><linearGradient id="g" x1="0" x2="1" y1="0" y2="1"><stop stop-color="#14532d"/><stop offset=".55" stop-color="#0f172a"/><stop offset="1" stop-color="#7f1d1d"/></linearGradient></defs>
<rect width="512" height="512" rx="110" fill="url(#g)"/>
<circle cx="370" cy="118" r="54" fill="#ffffff22"/>
<path d="M158 352c-50-26-82-74-82-130 0-80 78-144 174-144s174 64 174 144c0 56-32 104-82 130l-28-52c32-16 52-45 52-78 0-48-52-88-116-88S134 174 134 222c0 33 20 62 52 78l-28 52Z" fill="#fff"/>
<path d="M198 224h104l32 86-84 54-84-54 32-86Z" fill="#facc15"/>
<text x="256" y="455" text-anchor="middle" font-family="Arial" font-size="58" font-weight="900" fill="#fff">2026</text>
</svg>